<svg width="52" height="52" viewBox="0 0 52 52" fill="none" xmlns="http://www.w3.org/2000/svg">
<rect x="1" y="1" width="50" height="50" rx="6" fill="white"/>
<path d="M16.644 19.64H20.612V21.336H23.236L21.316 22.584C21.38 21.496 21.6787 20.6533 22.212 20.056C22.7667 19.4373 23.5027 19.128 24.42 19.128C25.2733 19.128 25.9773 19.4587 26.532 20.12C27.0867 20.7813 27.4173 21.6987 27.524 22.872L25.604 21.464H29.86L27.972 22.616C28.036 21.528 28.3667 20.6747 28.964 20.056C29.5613 19.4373 30.34 19.128 31.3 19.128C32.388 19.128 33.252 19.5867 33.892 20.504C34.5533 21.4 34.884 22.648 34.884 24.248V39H31.14V25.816C31.14 25.0267 30.9907 24.44 30.692 24.056C30.3933 23.6507 29.956 23.448 29.38 23.448C28.804 23.448 28.3667 23.6507 28.068 24.056C27.7693 24.44 27.62 25.0267 27.62 25.816V39H23.876V25.816C23.876 25.0267 23.7267 24.44 23.428 24.056C23.1507 23.6507 22.724 23.448 22.148 23.448C21.572 23.448 21.1347 23.6507 20.836 24.056C20.5373 24.44 20.388 25.0267 20.388 25.816V39H16.644V19.64Z" fill="black"/>
<rect x="1" y="1" width="50" height="50" rx="6" stroke="black" stroke-width="2"/>
</svg>
